<svg viewBox="0 0 38 16" version="1.1" xmlns="http://www.w3.org/2000/svg"><path fill="#ea3636" d="M2,0h34c1.1,0,2,0.9,2,2v12c0,1.1-0.9,2-2,2H2c-1.1,0-2-0.9-2-2V2C0,0.9,0.9,0,2,0z"/><path fill="#fff" d="M5,11.4V4.6h2.3c2.4,0,3.7,1.1,3.7,3.3c0,1-0.3,1.9-1,2.5c-0.7,0.7-1.6,1-2.6,1L5,11.4z M6.4,5.8v4.4h0.8	c0.6,0,1.2-0.2,1.6-0.6c0.4-0.5,0.6-1.1,0.6-1.7c0-0.6-0.2-1.2-0.6-1.6c-0.4-0.4-1-0.6-1.6-0.6H6.4z"/><path fill="#fff" d="M16.3,9.4h-3.2c0.1,0.8,0.5,1.1,1.4,1.1c0.5,0,1-0.1,1.4-0.4v1c-0.5,0.3-1.1,0.4-1.7,0.4	c-0.7,0-1.3-0.2-1.8-0.6c-0.4-0.5-0.7-1.2-0.6-1.8c0-0.7,0.2-1.4,0.7-1.9c0.4-0.5,1.1-0.7,1.7-0.7c0.6,0,1.2,0.2,1.6,0.6	c0.4,0.5,0.6,1.1,0.6,1.7V9.4z M15,8.5c0-0.7-0.3-1.1-0.9-1.1c-0.2,0-0.5,0.1-0.6,0.3c-0.2,0.2-0.3,0.5-0.4,0.8H15z"/><path fill="#fff" d="M17.2,11.4V4.2h1.4v7.2L17.2,11.4z"/><path fill="#fff" d="M24.2,9.4H21c0,0.8,0.5,1.1,1.4,1.1c0.5,0,1-0.1,1.4-0.4v1c-0.5,0.3-1.1,0.4-1.7,0.4c-0.7,0-1.3-0.2-1.8-0.6	c-0.4-0.5-0.7-1.2-0.6-1.8c0-0.7,0.2-1.4,0.7-1.9c0.4-0.5,1.1-0.7,1.7-0.7c0.6,0,1.2,0.2,1.6,0.6c0.4,0.5,0.6,1.1,0.6,1.7V9.4z M22.9,8.5c0-0.7-0.3-1.1-0.9-1.1c-0.2,0-0.5,0.1-0.6,0.3C21.1,7.9,21,8.2,21,8.5H22.9z"/><path fill="#fff" d="M28,11.3c-0.3,0.1-0.7,0.2-1,0.2c-1,0-1.5-0.5-1.5-1.6V7.6h-0.8V6.5h0.8V5.5l1.4-0.4v1.5H28v1.1h-1.1v2.1	c0,0.5,0.2,0.8,0.6,0.8c0.2,0,0.3-0.1,0.5-0.1L28,11.3z"/><path fill="#fff" d="M33.1,9.4h-3.2c0,0.8,0.5,1.1,1.4,1.1c0.5,0,1-0.1,1.4-0.4v1c-0.5,0.3-1.1,0.4-1.7,0.4c-0.7,0-1.3-0.2-1.8-0.6	c-0.5-0.5-0.7-1.2-0.6-1.8c0-0.7,0.2-1.4,0.7-1.9c0.4-0.5,1.1-0.7,1.7-0.7c0.6,0,1.2,0.2,1.6,0.6c0.4,0.5,0.6,1.1,0.6,1.7L33.1,9.4z M31.8,8.5c0-0.7-0.3-1.1-0.9-1.1c-0.2,0-0.5,0.1-0.6,0.3c-0.2,0.2-0.3,0.5-0.4,0.8H31.8z"/></svg>
