<?xml version="1.0" encoding="UTF-8"?>
<svg width="28px" height="14px" viewBox="0 0 28 14" version="1.1" xmlns="http://www.w3.org/2000/svg" xmlns:xlink="http://www.w3.org/1999/xlink">
    <!-- Generator: Sketch 52.2 (67145) - http://www.bohemiancoding.com/sketch -->
    <title>del-tag</title>
    <desc>Created with Sketch.</desc>
    <defs>
        <path d="M3.828125,10.1328125 C3.69791602,10.0286453 3.48958477,9.83333477 3.203125,9.546875 C3.69791914,8.89583008 3.91927109,7.65886328 3.8671875,5.8359375 L3.8671875,5.640625 L3.203125,5.640625 L3.203125,8.921875 C3.203125,9.46875273 2.92969023,9.7552082 2.3828125,9.78125 C2.22656172,9.8072918 1.99218906,9.8203125 1.6796875,9.8203125 C1.62760391,9.58593633 1.56250039,9.31250156 1.484375,9 L1.9921875,9 C2.30468906,9 2.4479168,8.86979297 2.421875,8.609375 L2.421875,5.640625 L1.640625,5.640625 L1.640625,5.8359375 C1.69270859,7.76303047 1.43229453,9.19530781 0.859375,10.1328125 C0.781249609,10.0286453 0.638021875,9.89843828 0.4296875,9.7421875 L0.1953125,9.5078125 C0.664064844,8.75260039 0.885416797,7.51563359 0.859375,5.796875 L0.859375,5.640625 L0.234375,5.640625 L0.234375,4.7421875 L0.859375,4.7421875 L0.859375,1.1484375 L3.203125,1.1484375 L3.203125,4.7421875 L3.8671875,4.7421875 L3.8671875,1.1484375 L6.25,1.1484375 L6.25,4.7421875 L6.71875,4.7421875 L6.71875,5.640625 L6.25,5.640625 L6.25,9 C6.2760418,9.57291953 6.01562773,9.8723957 5.46875,9.8984375 C5.20833203,9.9244793 4.94791797,9.9375 4.6875,9.9375 C4.63541641,9.59895664 4.57031289,9.29948047 4.4921875,9.0390625 C4.64843828,9.0651043 4.83072813,9.078125 5.0390625,9.078125 C5.29948047,9.078125 5.4296875,8.96093867 5.4296875,8.7265625 L5.4296875,5.640625 L4.6484375,5.640625 L4.6484375,5.8359375 C4.6484375,6.98177656 4.59635469,7.84114297 4.4921875,8.4140625 C4.38802031,8.96094023 4.16666836,9.53385117 3.828125,10.1328125 Z M7.1484375,9.9765625 C7.1223957,9.84635352 7.08333359,9.63802227 7.03125,9.3515625 C7.0052082,9.22135352 6.9791668,9.11718789 6.953125,9.0390625 C7.10937578,9.0651043 7.31770703,9.0651043 7.578125,9.0390625 L7.8125,9.0390625 C8.25521055,9.0651043 8.4635418,8.90885586 8.4375,8.5703125 L8.4375,0.8359375 L9.296875,0.8359375 L9.296875,8.8046875 C9.3229168,9.55989961 8.95833711,9.9375 8.203125,9.9375 C7.99479063,9.9635418 7.64323164,9.9765625 7.1484375,9.9765625 Z M6.9921875,7.828125 L6.9921875,1.6953125 L7.7734375,1.6953125 L7.7734375,7.828125 L6.9921875,7.828125 Z M4.6484375,2.0078125 L4.6484375,4.7421875 L5.4296875,4.7421875 L5.4296875,2.0078125 L4.6484375,2.0078125 Z M1.640625,2.0078125 L1.640625,4.7421875 L2.421875,4.7421875 L2.421875,2.0078125 L1.640625,2.0078125 Z M19.296875,4.5078125 C18.9583316,4.29947813 18.6458348,4.10416758 18.359375,3.921875 L18.359375,4.7421875 L17.03125,4.7421875 L17.03125,5.7578125 L19.375,5.7578125 L19.375,6.65625 L17.03125,6.65625 L17.03125,8.8828125 C17.0572918,9.61198281 16.7187535,9.9895832 16.015625,10.015625 L14.921875,10.015625 L14.921875,9.8984375 C14.8958332,9.71614492 14.8437504,9.44271016 14.765625,9.078125 L15.5078125,9.078125 C15.8984395,9.1041668 16.0807293,8.94791836 16.0546875,8.609375 L16.0546875,6.65625 L13.828125,6.65625 L13.828125,5.7578125 L16.0546875,5.7578125 L16.0546875,4.7421875 L14.6484375,4.7421875 L14.6484375,4.1171875 C14.6223957,4.1432293 14.5572922,4.18229141 14.453125,4.234375 C14.3489578,4.31250039 14.1536473,4.44270742 13.8671875,4.625 C13.7630203,4.49479102 13.6328133,4.29948047 13.4765625,4.0390625 C13.3984371,3.90885352 13.3463543,3.81770859 13.3203125,3.765625 C14.6484441,3.01041289 15.6119762,2.00781875 16.2109375,0.7578125 L17.265625,0.875 L17.0703125,1.2265625 C17.7473992,2.24219258 18.6458277,3.02343477 19.765625,3.5703125 C19.7395832,3.64843789 19.6875004,3.75260352 19.609375,3.8828125 L19.296875,4.5078125 Z M10.625,10.1328125 L10.625,1.1875 L13.671875,1.1875 L13.671875,2.125 L12.8515625,4.6640625 C13.3723984,5.41927461 13.6197918,6.2005168 13.59375,7.0078125 C13.6197918,7.94531719 13.2682328,8.44010391 12.5390625,8.4921875 C12.3567699,8.5182293 12.1223973,8.53125 11.8359375,8.53125 C11.8098957,8.29687383 11.7447922,7.98437695 11.640625,7.59375 C11.640625,7.64583359 11.6276043,7.61979219 11.6015625,7.515625 L12.1875,7.515625 C12.5260434,7.515625 12.6953125,7.28125234 12.6953125,6.8125 C12.7213543,6.16145508 12.4739609,5.47135781 11.953125,4.7421875 L12.8125,2.125 L11.5625,2.125 L11.5625,10.1328125 L10.625,10.1328125 Z M16.5625,2.046875 C16.171873,2.69791992 15.6380242,3.29687227 14.9609375,3.84375 L18.203125,3.84375 C17.5520801,3.34895586 17.0052105,2.75000352 16.5625,2.046875 Z M13.9453125,9.46875 C13.8151035,9.28645742 13.5807309,9.09114687 13.2421875,8.8828125 C13.7890652,8.33593477 14.2968727,7.72396172 14.765625,7.046875 L15.5078125,7.5546875 C15.0390602,8.23177422 14.518232,8.86978867 13.9453125,9.46875 Z M18.9453125,9.3515625 C18.8411453,9.22135352 18.6718762,9.03906367 18.4375,8.8046875 C18.0208313,8.30989336 17.682293,7.91927227 17.421875,7.6328125 L18.125,7.0859375 C18.6979195,7.63281523 19.2187477,8.17968477 19.6875,8.7265625 L18.9453125,9.3515625 Z" id="path-1"></path>
    </defs>
    <g id="知识库首页" stroke="none" stroke-width="1" fill="none" fill-rule="evenodd">
        <g id="del-tag">
            <rect id="矩形" fill="#FFDDDD" x="0" y="0" width="28" height="14" rx="1"></rect>
            <g id="删除" transform="translate(4.000000, 1.500000)">
                <g>
                    <use fill="#000000" xlink:href="#path-1"></use>
                    <use fill="#EA3636" xlink:href="#path-1"></use>
                </g>
            </g>
        </g>
    </g>
</svg>
