<svg viewBox="0 0 44 16" version="1.1" xmlns="http://www.w3.org/2000/svg"><path fill="#fff2dc" d="M2,0h40c1.1,0,2,0.9,2,2v12c0,1.1-0.9,2-2,2H2c-1.1,0-2-0.9-2-2V2C0,0.9,0.9,0,2,0z"/><path fill="#ff9c01" d="M10.6,11.1c-0.6,0.3-1.3,0.4-1.9,0.4c-0.9,0-1.8-0.3-2.4-0.9C5.6,9.9,5.3,9,5.4,8.1c0-1,0.3-1.9,1-2.6	C7,4.8,8,4.5,9,4.5c0.6,0,1.1,0.1,1.7,0.3v1.4c-0.5-0.3-1-0.4-1.6-0.4C8.5,5.7,7.9,6,7.5,6.4C7.1,6.8,6.9,7.4,6.9,8	c0,0.6,0.2,1.2,0.6,1.6c0.4,0.4,1,0.7,1.6,0.7c0.6,0,1.1-0.1,1.6-0.4L10.6,11.1z"/><path fill="#ff9c01" d="M16.3,11.4h-1.4V8.6c0-0.7-0.3-1.1-0.8-1.1c-0.3,0-0.5,0.1-0.7,0.3c-0.2,0.2-0.3,0.5-0.3,0.8v2.8h-1.4V4.2h1.4	v3.1l0,0c0.3-0.5,0.9-0.8,1.5-0.8c1.1,0,1.7,0.7,1.7,2L16.3,11.4z"/><path fill="#ff9c01" d="M17.6,6.8c0.3-0.1,0.6-0.2,0.9-0.3c0.3-0.1,0.6-0.1,0.9-0.1c1-0.1,1.9,0.6,2,1.6c0,0.1,0,0.3,0,0.4v2.9h-1.3	v-0.7l0,0c-0.3,0.5-0.9,0.8-1.5,0.8c-0.4,0-0.8-0.1-1.1-0.4c-0.3-0.3-0.4-0.7-0.4-1.1c0-0.9,0.5-1.5,1.7-1.6l1.3-0.2	c0-0.6-0.3-0.8-0.9-0.8c-0.6,0-1.2,0.2-1.6,0.5L17.6,6.8z M19.2,9.2c-0.5,0.1-0.8,0.3-0.8,0.7c0,0.2,0.1,0.3,0.2,0.4	c0.1,0.1,0.3,0.2,0.5,0.2c0.3,0,0.5-0.1,0.7-0.3c0.2-0.2,0.3-0.5,0.3-0.8V9.1L19.2,9.2z"/><path fill="#ff9c01" d="M27.3,11.4h-1.4V8.7c0-0.8-0.3-1.2-0.9-1.2c-0.3,0-0.5,0.1-0.7,0.3c-0.2,0.2-0.3,0.5-0.3,0.8v2.8h-1.4V6.5h1.4	v0.8l0,0c0.3-0.6,0.9-0.9,1.6-0.9c1.1,0,1.6,0.7,1.6,2L27.3,11.4z"/><path fill="#ff9c01" d="M33.2,10.9c0.1,0.8-0.2,1.5-0.8,2.1c-0.6,0.5-1.4,0.8-2.2,0.7c-0.5,0-1.1-0.1-1.6-0.3v-1.2	c0.5,0.3,1,0.4,1.5,0.4c0.4,0,0.9-0.1,1.2-0.4c0.3-0.3,0.5-0.7,0.4-1.1v-0.4l0,0c-0.3,0.5-0.9,0.9-1.5,0.8c-0.6,0-1.1-0.2-1.5-0.6	c-0.4-0.5-0.6-1.1-0.6-1.8c0-0.7,0.2-1.4,0.6-1.9c0.4-0.5,1-0.7,1.6-0.7c0.5,0,1.1,0.2,1.4,0.7l0,0V6.5h1.4L33.2,10.9z M31.8,8.6	c0-0.3-0.1-0.6-0.3-0.8c-0.2-0.2-0.5-0.3-0.7-0.3c-0.3,0-0.6,0.1-0.8,0.4c-0.2,0.3-0.3,0.7-0.3,1.1c0,0.4,0.1,0.7,0.3,1	c0.2,0.2,0.5,0.4,0.8,0.4c0.3,0,0.6-0.1,0.8-0.4c0.2-0.3,0.3-0.6,0.3-1L31.8,8.6z"/><path fill="#ff9c01" d="M38.8,9.4h-3.2c0,0.8,0.5,1.1,1.4,1.1c0.5,0,1-0.1,1.4-0.4v1c-0.5,0.3-1.1,0.4-1.7,0.4c-0.7,0-1.3-0.2-1.8-0.6	c-0.4-0.5-0.7-1.2-0.6-1.8c0-0.7,0.2-1.4,0.7-1.9c0.4-0.5,1.1-0.7,1.7-0.7c0.6,0,1.2,0.2,1.6,0.6c0.4,0.5,0.6,1.1,0.6,1.7V9.4z M37.5,8.5c0-0.7-0.3-1.1-0.9-1.1c-0.2,0-0.5,0.1-0.7,0.3c-0.2,0.2-0.3,0.5-0.3,0.8H37.5z"/></svg>
