<svg viewBox="0 0 36 16" version="1.1" xmlns="http://www.w3.org/2000/svg"><g fill="#3a84ff"><path d="M15.72 8.97H17.36V9.73H15.72z"/><path d="M15.72 7.31H17.36V8.07H15.72z"/><path d="M34,0H2A2,2,0,0,0,0,2V14a2,2,0,0,0,2,2H34a2,2,0,0,0,2-2V2A2,2,0,0,0,34,0ZM6.44,3.6l1,.76A23.22,23.22,0,0,1,5.33,6.8a11.85,11.85,0,0,0-.48-1.33A9.78,9.78,0,0,0,6.44,3.6Zm6.88,5.82H12.23V11a1.37,1.37,0,0,1-.19.8,1,1,0,0,1-.53.37,9.57,9.57,0,0,1-1.93.11q-.13-.66-.27-1.14c.39,0,.76,0,1.1,0a1.68,1.68,0,0,0,.4,0A.32.32,0,0,0,11,11a.74.74,0,0,0,.07-.33V9.42H9c.26.26.57.59.94,1l-1,.75A11.3,11.3,0,0,0,8,9.94l.66-.52H7.4V8.35h3.66V7.73h1.17v.62h1.09Zm0-1.89H7.4V7.16c-.2.3-.4.58-.61.86v4.33H5.66v-3c-.22.23-.45.45-.68.66-.11-.48-.23-.93-.35-1.36a14.91,14.91,0,0,0,2-2.48l.74.69V6.43H9.7V5.72H7.83V4.62H9.7V3.71H11v.91h2v1.1H11v.71h2.37Zm8.13,3.55H20.28v-.43H18.63v1.74H17.37V10.65H15.72v.43H14.53V6.38h2.84V5.7h1.26v.68h2.84Zm.61-4.92H20.86V5.49h-5.7v.67H13.94V4.53h3.41c-.09-.27-.17-.5-.26-.71l1.51-.14c.08.24.17.52.27.85h3.21Zm2.57,5.07a1.24,1.24,0,0,1-.19.75.83.83,0,0,1-.63.31c-.3,0-.62,0-1,0a8.65,8.65,0,0,0-.21-1.14h.68c.15,0,.23-.11.23-.34V9.22l-.83.23-.1-1.29L23.54,8V6.44h-.88V5.35h.88V3.81h1.11V5.35h.71V6.44h-.71V7.71a6,6,0,0,0,.65-.17c0,.47,0,.86,0,1.18l-.66.19Zm1.26,1-.63-1a1.29,1.29,0,0,0,.43-1V3.9h1.2V6.37h.95V7.56h-.95v3c.34-.14.65-.28.92-.42,0,.5,0,.91.08,1.23A17.19,17.19,0,0,0,25.91,12.27ZM29.61,11h.18c.1,0,.19-.07.26-.22a9.56,9.56,0,0,0,.18-1.92l1.14.37c-.06.81-.12,1.4-.18,1.76a1.34,1.34,0,0,1-.41.83,1.29,1.29,0,0,1-.9.3h-.53c-.84,0-1.25-.44-1.25-1.3v-7h1.21V6.72c.36-.38.77-.84,1.26-1.39l.81,1q-1,1-2.07,1.95v2.41C29.31,10.91,29.41,11,29.61,11Z"/><path d="M18.63 8.97H20.27V9.73H18.63z"/><path d="M18.63 7.31H20.27V8.07H18.63z"/></g></svg>
