<svg viewBox="0 0 30 16" version="1.1" xmlns="http://www.w3.org/2000/svg"><path fill="#c4c6cc" d="M2,0h26c1.1,0,2,0.9,2,2v12c0,1.1-0.9,2-2,2H2c-1.1,0-2-0.9-2-2V2C0,0.9,0.9,0,2,0z"/><path fill="#fff" d="M7.2,9v2.4H5.8V4.6h2.3c1.7,0,2.5,0.7,2.5,2.2c0,0.6-0.3,1.3-0.8,1.7C9.4,8.8,8.7,9,8,9H7.2z M7.2,5.7v2.2h0.6	c0.9,0,1.3-0.4,1.3-1.1S8.7,5.7,7.9,5.7L7.2,5.7z"/><path fill="#fff" d="M11.4,6.8c0.3-0.1,0.6-0.2,0.9-0.3c0.3-0.1,0.6-0.1,0.9-0.1c1-0.1,1.9,0.6,2,1.6c0,0.1,0,0.3,0,0.4v2.9h-1.3	v-0.7l0,0c-0.3,0.5-0.9,0.8-1.5,0.8c-0.4,0-0.8-0.1-1.1-0.4c-0.3-0.3-0.4-0.6-0.4-1c0-0.9,0.6-1.5,1.7-1.6L14,8.2	c0-0.6-0.3-0.8-0.9-0.8c-0.6,0-1.2,0.2-1.6,0.5L11.4,6.8z M13,9.2c-0.5,0.1-0.8,0.3-0.8,0.7c0,0.2,0.1,0.3,0.2,0.4	c0.1,0.1,0.3,0.2,0.5,0.2c0.3,0,0.5-0.1,0.7-0.3C13.9,10,14,9.7,14,9.4V9.1L13,9.2z"/><path fill="#fff" d="M16.4,10.1c0.4,0.3,0.9,0.4,1.4,0.4c0.6,0,0.9-0.1,0.9-0.5S18.4,9.6,18,9.5c-0.5-0.1-0.9-0.3-1.2-0.6	c-0.2-0.3-0.4-0.6-0.3-0.9c0-0.5,0.2-0.9,0.6-1.1c0.5-0.3,1-0.4,1.5-0.4c0.4,0,0.9,0.1,1.3,0.2v1.1c-0.4-0.2-0.8-0.3-1.2-0.3	c-0.2,0-0.4,0-0.5,0.1c-0.1,0.1-0.2,0.2-0.2,0.3c0,0.2,0.2,0.4,0.6,0.6c0.3,0.1,0.7,0.2,1,0.4c0.4,0.2,0.7,0.7,0.7,1.2	c0,0.5-0.2,0.9-0.6,1.2c-0.5,0.3-1,0.4-1.6,0.4c-0.5,0-1-0.1-1.5-0.2L16.4,10.1z"/><path fill="#fff" d="M20.8,10.1c0.4,0.3,0.9,0.4,1.4,0.4c0.6,0,0.9-0.1,0.9-0.5s-0.2-0.4-0.7-0.6c-0.5-0.1-0.9-0.3-1.2-0.6	c-0.2-0.3-0.3-0.6-0.3-0.9c0-0.4,0.2-0.9,0.6-1.1c0.5-0.3,1-0.4,1.5-0.4c0.4,0,0.9,0.1,1.3,0.2v1.1c-0.4-0.2-0.8-0.3-1.2-0.3	c-0.2,0-0.4,0-0.5,0.1c-0.1,0.1-0.2,0.2-0.2,0.3c0,0.2,0.2,0.4,0.6,0.6c0.3,0.1,0.7,0.2,1,0.4c0.2,0.1,0.4,0.3,0.5,0.5	c0.1,0.2,0.2,0.4,0.2,0.7c0,0.5-0.2,0.9-0.6,1.2c-0.5,0.3-1,0.4-1.6,0.4c-0.5,0-1-0.1-1.5-0.2L20.8,10.1z"/></svg>
