<svg viewBox="0 0 24 12" version="1.1" xmlns="http://www.w3.org/2000/svg"><path fill="#e7fcfa" d="M1,0h22c0.6,0,1,0.4,1,1v10c0,0.6-0.4,1-1,1H1c-0.6,0-1-0.4-1-1V1C0,0.4,0.4,0,1,0z"/><path fill="#18c0a1" d="M5.7,7.5C5.5,8.2,5.3,9,4.9,9.6L4.2,9.2C4.6,8.6,4.9,8,5,7.3L5.7,7.5z M5.2,4.9C5.1,4.6,5,4.4,4.9,4.1l0.7-0.3	c0.1,0.3,0.2,0.6,0.3,1h0.7c0.1-0.3,0.2-0.7,0.3-1l0.7,0.3C7.6,4.4,7.5,4.6,7.4,4.9h0.8v0.8H6.7v0.7H8V7H6.7v2.1	c0,0.5-0.3,0.7-0.8,0.7H5.5L5.3,9.1c0.1,0,0.2,0,0.3,0.1c0.2,0,0.3-0.1,0.3-0.2V7H4.5V6.3h1.4V5.6H4.4V4.9H5.2z M5.8,3	C5.7,2.8,5.6,2.6,5.5,2.5l0.9-0.1C6.5,2.5,6.6,2.8,6.7,3h1.5v0.8H4.5V3H5.8z M8,8.7L7.3,8.9C7.2,8.4,7,7.9,6.8,7.5l0.7-0.2	C7.7,7.8,7.9,8.2,8,8.7z M11.5,3.2C10.8,3.5,10,3.6,9.3,3.6v1.2h2.4v0.8H11v4.2h-0.8V5.7H9.3v0.8c0,1.2-0.3,2.4-0.9,3.4L7.8,9.2	c0.5-0.8,0.8-1.8,0.7-2.8V3c0.9,0,1.8-0.2,2.7-0.5L11.5,3.2z"/><path fill="#18c0a1" d="M13.1,4.5v-2H14v2h0.7v0.8H14v2.3c0.3-0.1,0.5-0.2,0.8-0.4V8c-0.7,0.4-1.5,0.7-2.3,0.9l-0.2-0.8	c0.3-0.1,0.6-0.1,0.9-0.2V5.3h-0.8V4.5H13.1z M16.7,3.4h1c0.1-0.3,0.2-0.7,0.3-1l0.8,0.1c-0.1,0.3-0.2,0.6-0.3,0.9h1v2.9h-4.6V3.4h1	c-0.1-0.3-0.2-0.6-0.3-0.8l0.8-0.1C16.5,2.7,16.6,3,16.7,3.4z M19.2,9.8h-0.8V9.6H16v0.3h-0.8V6.7h3.9L19.2,9.8z M16.8,4.1h-1.2v1.5	h1.2V4.1z M16.6,5.3l-0.5,0.1c-0.1-0.3-0.2-0.7-0.3-1l0.5-0.2C16.4,4.6,16.5,4.9,16.6,5.3z M18.4,7.8V7.3H16v0.5L18.4,7.8z M18.4,8.9V8.4H16v0.5L18.4,8.9z M18.7,4.1h-1.2v1.5h1.2L18.7,4.1z M18.5,4.4c-0.1,0.4-0.2,0.7-0.4,1.1l-0.5-0.2	c0.1-0.3,0.3-0.7,0.3-1L18.5,4.4z"/></svg>
