<svg viewBox="0 0 43 16" version="1.1" xmlns="http://www.w3.org/2000/svg"><path fill="#c4c6cc" d="M2,0h39c1.1,0,2,0.9,2,2v12c0,1.1-0.9,2-2,2H2c-1.1,0-2-0.9-2-2V2C0,0.9,0.9,0,2,0z"/><path fill="#fff" d="M11.4,11.4H9.7L8.7,9.6C8.5,9.4,8.3,9.1,8.1,8.9C8,8.8,7.8,8.8,7.7,8.8H7.2v2.6H5.8V4.6h2.4	c1.6,0,2.4,0.6,2.4,1.8c0,0.4-0.1,0.9-0.4,1.2C9.9,8,9.5,8.2,9.1,8.3l0,0c0.4,0.2,0.8,0.6,1,1L11.4,11.4z M7.2,5.7v2H8	c0.3,0,0.6-0.1,0.8-0.3C9,7.2,9.1,6.9,9.1,6.6C9.1,6,8.8,5.7,8,5.7L7.2,5.7z"/><path fill="#fff" d="M16,9.4h-3.2c0,0.8,0.5,1.1,1.4,1.1c0.5,0,1-0.1,1.4-0.4v1c-0.5,0.3-1.1,0.4-1.7,0.4c-0.7,0-1.3-0.2-1.8-0.6	c-0.5-0.5-0.7-1.2-0.6-1.8c0-0.7,0.2-1.4,0.7-1.9c0.4-0.5,1.1-0.7,1.7-0.7c0.6,0,1.2,0.2,1.6,0.6C15.8,7.5,16,8.1,16,8.8V9.4z M14.7,8.5c0-0.7-0.3-1.1-0.9-1.1c-0.2,0-0.5,0.1-0.6,0.3c-0.2,0.2-0.3,0.5-0.4,0.8H14.7z"/><path fill="#fff" d="M21.5,6.5l-1.8,4.9H18l-1.7-4.9h1.5l0.9,3.1c0.1,0.3,0.1,0.6,0.2,0.8l0,0c0-0.3,0.1-0.5,0.2-0.8l1-3.1H21.5z"/><path fill="#fff" d="M21.7,9c0-0.7,0.2-1.4,0.7-1.9c0.5-0.5,1.2-0.7,1.9-0.7c0.7,0,1.4,0.2,1.9,0.7c0.5,0.5,0.7,1.1,0.7,1.8	c0,0.7-0.2,1.4-0.7,1.9c-0.5,0.5-1.2,0.7-1.9,0.7c-0.7,0-1.4-0.2-1.9-0.7C21.9,10.4,21.7,9.7,21.7,9z M23.2,9c0,1,0.4,1.4,1.2,1.4	s1.1-0.5,1.1-1.5s-0.4-1.5-1.1-1.5c-0.3,0-0.7,0.1-0.9,0.4C23.2,8.2,23.1,8.6,23.2,9z"/><path fill="#fff" d="M32.7,11.4H31L29.4,9l0,0v2.4h-1.4V4.2h1.4v4.6l0,0l1.5-2.2h1.7l-1.8,2.3L32.7,11.4z"/><path fill="#fff" d="M37.5,9.4h-3.2c0,0.8,0.5,1.1,1.4,1.1c0.5,0,1-0.1,1.4-0.4v1c-0.5,0.3-1.1,0.4-1.7,0.4c-0.7,0-1.3-0.2-1.8-0.6	c-0.4-0.5-0.7-1.2-0.6-1.8c0-0.7,0.2-1.4,0.7-1.9c0.4-0.5,1.1-0.7,1.7-0.7c0.6,0,1.2,0.2,1.6,0.6c0.4,0.5,0.6,1.1,0.6,1.7V9.4z M36.1,8.5c0-0.7-0.3-1.1-0.9-1.1c-0.2,0-0.5,0.1-0.7,0.3c-0.2,0.2-0.3,0.5-0.3,0.8H36.1z"/></svg>
