<svg viewBox="0 0 36 16" version="1.1" xmlns="http://www.w3.org/2000/svg"><path fill="#ea3636" d="M10,8.16a4.92,4.92,0,0,0,.88,1.54,5,5,0,0,0,.87-1.54Z"/><path fill="#ea3636" d="M9.94,8.16H9.09a10.84,10.84,0,0,1-.31,3,5.58,5.58,0,0,0,1.32-.72,7.1,7.1,0,0,1-1-1.66Z"/><path fill="#ea3636" d="M7.92,9.49A10.43,10.43,0,0,0,8,8.06l-.66.88Z"/><path fill="#ea3636" d="M9.09 5.8H10.09V7.13H9.09z"/><path fill="#ea3636" d="M26.24 7.17H27.75V8.84H26.24z"/><path fill="#ea3636" d="M34,0H2A2,2,0,0,0,0,2V14a2,2,0,0,0,2,2H34a2,2,0,0,0,2-2V2A2,2,0,0,0,34,0ZM17.94,3.91l1.77,1.17a14.12,14.12,0,0,0,1.38-1.31l1,.7c-.45.46-.9.87-1.36,1.26l1.63,1.1-.79.94L19.75,6.49a18.63,18.63,0,0,1-2.18,1.4,10.88,10.88,0,0,0-.72-1A14.21,14.21,0,0,0,18.77,5.8L17.2,4.72Zm-5.32,8.43a6.4,6.4,0,0,1-1.69-1,7.51,7.51,0,0,1-1.66,1.07c-.15-.27-.34-.58-.57-.94a4.2,4.2,0,0,1-.46,1l-1-.72a4.8,4.8,0,0,0,.64-1.83l-.45.37L6.64,9.3v3.09h-1v-3c-.22.26-.44.5-.67.73-.1-.55-.21-1-.32-1.43A7.06,7.06,0,0,0,6.1,6.57H4.82V5.41H6.25c-.33-.51-.62-.92-.85-1.23l1-.51c.27.32.58.74.94,1.24l-1,.5h1v1a14.13,14.13,0,0,1-.8,1.5V8.6a12.13,12.13,0,0,0,.8-1.22L8,7.81V4.73h2.08V3.65h1.14V4.73h2v1L13,6.8H11.94l.16-1h-.87V7.13H13v1a6.62,6.62,0,0,1-1.23,2.3,5,5,0,0,0,1.59.68C13.06,11.62,12.81,12,12.62,12.34Zm1-2.85c.65-.05,1.36-.12,2.11-.23,0,.33,0,.68,0,1.07-.77.1-1.43.19-2,.28Zm8.1,2.94a8,8,0,0,1-2-1.28,9.85,9.85,0,0,1-2.23,1.32,8.89,8.89,0,0,0-.59-.82,1.08,1.08,0,0,1-.65.49,6.93,6.93,0,0,1-1.76,0c0-.33-.1-.71-.18-1.16.37,0,.8.07,1.28.08.25,0,.39-.11.4-.35,0-.51.08-1.17.12-2H13.75l.33-3.26h1.1L14.93,7.7h.61l.2-2.45H13.83V4.19H17L16.66,7.7h.57c0,1-.09,2.05-.16,3.16a1.71,1.71,0,0,1-.09.48,8.62,8.62,0,0,0,1.87-1.1,9.73,9.73,0,0,1-1.12-2.17l1-.48a7.75,7.75,0,0,0,.95,1.77,4.47,4.47,0,0,0,.75-1.8l1.15.4a7.35,7.35,0,0,1-1.08,2.29,6.63,6.63,0,0,0,1.91,1.11C22.18,11.67,22,12,21.71,12.43ZM31,12.31H29.71v-.37H24.3v.38H23V4.09H31Z"/><path fill="#ea3636" d="M29.71,5.17H24.3v5.69h5.41ZM29,9.89H25V6.13h4Z"/></svg>
