<svg viewBox="0 0 36 16" version="1.1" xmlns="http://www.w3.org/2000/svg"><g fill="#c4c6cc"><path d="M27.09 8.75H29.86V9.41H27.09z"/><path d="M17.08 8.41H18.209999999999997V8.86H17.08z"/><path d="M17.08 9.62H18.209999999999997V10.069999999999999H17.08z"/><path d="M20.4,6.32a9.71,9.71,0,0,0,.34,2.32,9.61,9.61,0,0,0,.37-2.42h-.67A.3.3,0,0,0,20.4,6.32Z"/><path d="M27.09 7.11H29.86V7.78H27.09z"/><path d="M34,0H2A2,2,0,0,0,0,2V14a2,2,0,0,0,2,2H34a2,2,0,0,0,2-2V2A2,2,0,0,0,34,0ZM13,11a1.22,1.22,0,0,1-.61.82,2.56,2.56,0,0,1-1.28.27H7.34c-1.26,0-1.88-.66-1.88-2V6.32h1.3v.85H11V5.32H5.22V4.11h7.1V8.38H6.76V10c0,.59.28.89.83.89h3.28a1.52,1.52,0,0,0,.66-.13.61.61,0,0,0,.32-.46c0-.21.1-.69.19-1.43a10.4,10.4,0,0,0,1.35.51C13.25,10.05,13.13,10.59,13,11Zm2.83-4.49h-.52V7.79l.52-.12a10.4,10.4,0,0,0,0,1.09l-.49.12v2.4a1.31,1.31,0,0,1-.15.69.62.62,0,0,1-.51.28,7.82,7.82,0,0,1-.9,0c0-.36-.1-.74-.18-1.15a4.2,4.2,0,0,0,.47,0c.16,0,.25-.13.25-.39V9.12l-.66.16,0-1.16.7-.12V6.47h-.65v-1h.65V3.73h1V5.45h.52Zm6,5.9a6,6,0,0,1-1.14-1.31,6.46,6.46,0,0,1-1.09,1.34,9.13,9.13,0,0,0-.5-1,.76.76,0,0,1-.3.7,3.15,3.15,0,0,1-1.41.19,8.3,8.3,0,0,0-.27-.94,2.56,2.56,0,0,0,.88,0A.37.37,0,0,0,18.2,11v-.16H17.08v1.47h-1V7.58h3.08V11.2a4.71,4.71,0,0,0,1-1.27,9.35,9.35,0,0,1-.51-2.27L19.48,8a8.77,8.77,0,0,0-.37-.84l-.34.23-.12-.25q-1.81.06-2.58.15l-.16-.82a8.84,8.84,0,0,0,.81-1h-.83V4.57h1.28l-.2-.7L18,3.65l.26.92h1.16v.88H17.85l-.77.93,1.14,0a4.71,4.71,0,0,0-.33-.52l.7-.37c.26.33.5.66.72,1a13.7,13.7,0,0,0,.87-2.8l1,.22c-.11.44-.23.87-.37,1.29h1.53v1h-.3A11.38,11.38,0,0,1,21.32,10a4,4,0,0,0,1.06,1.15A10,10,0,0,0,21.9,12.37Zm3.8-6.61H24.14c-.09.22-.19.44-.29.64h1.71v1H24.7v.89h.87v1H24.7v1.3l.78-.48a9.92,9.92,0,0,0,.1,1.16,11.25,11.25,0,0,0-1.66,1.15l-.63-.87a1.23,1.23,0,0,0,.26-.81V9.27h-.91v-1h.91V7.39h-.24c-.12.2-.24.39-.37.57q-.17-.83-.33-1.41a10.64,10.64,0,0,0,1.06-2.87l1.11.23c-.09.3-.18.59-.27.86H25.7Zm.79-1.93c.38.4.78.86,1.21,1.38l-.83.71c-.39-.52-.77-1-1.14-1.42ZM31,10.93a1.46,1.46,0,0,1-.24.9.93.93,0,0,1-.73.34q-.49,0-1.53,0a9.74,9.74,0,0,0-.3-1.18l1.12,0c.34,0,.51-.16.51-.47v-.2H27.09v1.83H25.91V6.07h2V3.68h1.16V6.07H31ZM30,6l-.76-.64a14.28,14.28,0,0,0,1.19-1.43l.83.63Q30.66,5.23,30,6Z"/></g></svg>
