<svg viewBox="0 0 33 16" version="1.1" xmlns="http://www.w3.org/2000/svg"><path fill="#3a84ff" d="M2,0h29c1.1,0,2,0.9,2,2v12c0,1.1-0.9,2-2,2H2c-1.1,0-2-0.9-2-2V2C0,0.9,0.9,0,2,0z"/><path fill="#fff" d="M10.5,5.8H8.5v5.6H7.1V5.8H5.2V4.6h5.3V5.8z"/><path fill="#fff" d="M10.1,9c0-0.7,0.2-1.4,0.7-1.9c0.5-0.5,1.2-0.7,1.9-0.7c0.7,0,1.4,0.2,1.9,0.7c0.5,0.5,0.7,1.1,0.7,1.8	c0,0.7-0.2,1.4-0.7,1.9c-0.5,0.5-1.2,0.7-1.9,0.7c-0.7,0-1.4-0.2-1.9-0.7C10.3,10.3,10.1,9.7,10.1,9z M11.5,9c0,1,0.4,1.4,1.2,1.4	s1.1-0.5,1.1-1.5s-0.4-1.5-1.2-1.5c-0.3,0-0.7,0.1-0.9,0.4C11.6,8.2,11.5,8.6,11.5,9z"/><path fill="#fff" d="M21,11.4h-1.4v-0.7l0,0c-0.3,0.5-0.9,0.8-1.5,0.8c-0.6,0-1.1-0.2-1.5-0.6C16.2,10.4,16,9.7,16,9.1	c0-0.7,0.2-1.4,0.6-1.9c0.4-0.5,1-0.7,1.6-0.7c0.5-0.1,1.1,0.2,1.3,0.7l0,0V4.2H21V11.4z M19.6,8.6c0-0.3-0.1-0.6-0.3-0.8	c-0.2-0.2-0.5-0.3-0.7-0.3c-0.3,0-0.6,0.1-0.8,0.4c-0.2,0.3-0.3,0.7-0.3,1.1c0,0.4,0.1,0.7,0.3,1c0.3,0.4,1,0.5,1.4,0.2	c0.1,0,0.1-0.1,0.2-0.2c0.2-0.3,0.3-0.6,0.3-1V8.6z"/><path fill="#fff" d="M22,9c0-0.7,0.2-1.4,0.7-1.9c0.5-0.5,1.2-0.7,1.9-0.7c0.7,0,1.4,0.2,1.9,0.7c0.5,0.5,0.7,1.1,0.7,1.8	c0,0.7-0.2,1.4-0.7,1.9c-0.5,0.5-1.2,0.7-1.9,0.7c-0.7,0-1.4-0.2-1.9-0.7C22.2,10.3,22,9.7,22,9z M23.4,9c0,1,0.4,1.4,1.2,1.4	s1.1-0.5,1.1-1.5s-0.4-1.5-1.1-1.5c-0.3,0-0.7,0.1-0.9,0.4C23.5,8.2,23.4,8.6,23.4,9L23.4,9z"/></svg>
