<svg viewBox="0 0 36 16" version="1.1" xmlns="http://www.w3.org/2000/svg"><g fill="#3a84ff"><path d="M9.63 8.97H11.270000000000001V9.73H9.63z"/><path d="M9.63 7.31H11.270000000000001V8.07H9.63z"/><path d="M6.72 7.31H8.36V8.07H6.72z"/><path d="M6.72 8.97H8.36V9.73H6.72z"/><path d="M34,0H2A2,2,0,0,0,0,2V14a2,2,0,0,0,2,2H34a2,2,0,0,0,2-2V2A2,2,0,0,0,34,0ZM12.47,11.08H11.28v-.43H9.63v1.74H8.37V10.65H6.72v.43H5.53V6.38H8.37V5.7H9.63v.68h2.84Zm.61-4.92H11.86V5.49H6.16v.67H4.94V4.53H8.35c-.09-.27-.17-.5-.26-.71L9.6,3.68c.08.24.17.52.27.85h3.21Zm2.57,5.07a1.24,1.24,0,0,1-.19.75.83.83,0,0,1-.63.31c-.3,0-.62,0-1,0a8.65,8.65,0,0,0-.21-1.14h.68c.15,0,.23-.11.23-.34V9.22l-.83.23-.1-1.29L14.54,8V6.44h-.88V5.35h.88V3.81h1.11V5.35h.71V6.44h-.71V7.71c.25-.06.46-.11.65-.17,0,.47,0,.86,0,1.18l-.66.19Zm1.26,1-.63-1a1.29,1.29,0,0,0,.43-1V3.9h1.2V6.37h.95V7.56h-.95v3c.34-.14.65-.28.92-.42,0,.5,0,.91.08,1.23A17.19,17.19,0,0,0,16.91,12.27ZM20.61,11h.18c.1,0,.19-.07.26-.22a9.56,9.56,0,0,0,.18-1.92l1.14.37c-.06.81-.12,1.4-.18,1.76a1.34,1.34,0,0,1-.41.83,1.29,1.29,0,0,1-.9.3h-.53c-.84,0-1.25-.44-1.25-1.3v-7h1.21V6.72c.36-.38.77-.84,1.26-1.39l.81,1q-1,1-2.07,1.95v2.41C20.31,10.91,20.41,11,20.61,11Zm10.33-.86h-1.3V9.56h-2v2.83H26.32V9.56h-2v.64H23v-5h3.28V3.68h1.34V5.24h3.28Z"/><path d="M27.66 6.45H29.64V8.35H27.66z"/><path d="M24.35 6.45H26.330000000000002V8.35H24.35z"/></g></svg>
