<svg viewBox="0 0 24 12" version="1.1" xmlns="http://www.w3.org/2000/svg"><path fill="#f8eede" d="M1,0h22c0.6,0,1,0.4,1,1v10c0,0.6-0.4,1-1,1H1c-0.6,0-1-0.4-1-1V1C0,0.4,0.4,0,1,0z"/><path fill="#ff9c01" d="M6.4,4.7c-0.4,0.5-1,0.9-1.5,1.2L4.3,5.2c0.5-0.3,1-0.6,1.4-1L6.4,4.7z M10.6,6.2v0.6C10.1,7.4,9.6,8,8.9,8.4	c0.9,0.3,1.9,0.5,2.8,0.6l-0.4,0.8c-1.1-0.2-2.2-0.5-3.3-1c-1,0.5-2.2,0.8-3.3,1L4.4,9c1-0.1,1.9-0.4,2.8-0.7	C6.6,7.9,6.1,7.5,5.7,6.9H5.1V6.2H10.6z M8.4,3h3.1v0.8H9.4v2H8.5v-2h-1v2H6.7v-2H4.5V3h3.1C7.5,2.8,7.4,2.7,7.3,2.5l0.9-0.1	C8.3,2.6,8.4,2.8,8.4,3z M8,8c0.5-0.3,1-0.6,1.5-1H6.6C7,7.4,7.5,7.7,8,8z M11.7,5.3l-0.6,0.6C10.7,5.4,10.2,5,9.7,4.7l0.6-0.5	C10.8,4.5,11.2,4.8,11.7,5.3L11.7,5.3z"/><path fill="#ff9c01" d="M16,5.1v0.8h-1.8c-0.2,0.8-0.4,1.6-0.7,2.3c0.5-0.1,1-0.3,1.5-0.4c-0.2-0.4-0.4-0.7-0.5-1.1l0.7-0.3	c0.4,0.7,0.7,1.4,1,2.2C16.8,7.4,17,6.1,17,4.8V4.8h-1V4h1V2.5h0.8V4h1.7c0,2.6,0,4.3-0.1,4.9s-0.5,0.9-1.2,0.9h-0.7L17.3,9H18	c0.3,0,0.6-0.2,0.6-0.5c0,0,0,0,0,0c0-0.4,0.1-1.6,0.1-3.7h-0.9v0.1c0,2.3-0.6,4-1.7,5l-0.6-0.6C15.8,9,16,8.8,16.1,8.5l-0.7,0.4	c-0.1-0.2-0.1-0.3-0.2-0.5c-0.9,0.3-1.8,0.5-2.7,0.7l-0.2-0.8c0.1,0,0.1,0,0.2-0.1c0.4-0.8,0.7-1.6,0.8-2.4h-1V5.1H16z M15.7,2.9	v0.8h-3V2.9L15.7,2.9z"/></svg>
