<svg viewBox="0 0 36 16" version="1.1" xmlns="http://www.w3.org/2000/svg"><g fill="#10c178"><path d="M19.57 8.14H20.76V8.68H19.57z"/><path d="M17.75,4.93c.37.21.78.45,1.23.73l1.36-.73Z"/><path d="M17.37 6.83H18.52V7.37H17.37z"/><path d="M17.37 8.14H18.52V8.68H17.37z"/><path d="M19.57 6.83H20.76V7.37H19.57z"/><path d="M34,0H2A2,2,0,0,0,0,2V14a2,2,0,0,0,2,2H34a2,2,0,0,0,2-2V2A2,2,0,0,0,34,0ZM25.21,5.18h3.5V3.73H30V5.18h1.27V6.24H30V9.17a1.63,1.63,0,0,1-.35,1.13,1.26,1.26,0,0,1-1,.41c-.42,0-1,0-1.72,0-.08-.37-.19-.78-.33-1.25.7,0,1.18.07,1.43.07.44,0,.66-.24.66-.73V6.24h-3.5Zm.16,1.9,1-.72c.39.45.9,1.07,1.52,1.87-.32.23-.67.5-1,.79C26.38,8.41,25.89,7.77,25.37,7.08ZM23.89,3.67c.43.62.8,1.17,1.1,1.66L23.86,6c-.32-.59-.65-1.16-1-1.7ZM16.19,4h5.67V5L20,6h1.84V9.83a1.15,1.15,0,0,1-.17.66.75.75,0,0,1-.46.31,6.62,6.62,0,0,1-1.32.06c-.05-.26-.12-.56-.22-.9l.69,0c.25,0,.37-.13.37-.39V9.45H19.57v1.32H18.52V9.45H17.37v1.33H16.26V6h1.67L17,5.45l.45-.52H16.19ZM14.78,3.7A19.62,19.62,0,0,1,16,5.31L15,6c-.39-.62-.77-1.18-1.14-1.66ZM13,11a1.22,1.22,0,0,1-.61.82,2.56,2.56,0,0,1-1.28.27H7.34c-1.26,0-1.88-.66-1.88-2V6.32h1.3v.85H11V5.32H5.22V4.11h7.1V8.38H6.76V10c0,.59.28.89.83.89h3.28a1.52,1.52,0,0,0,.66-.13.61.61,0,0,0,.32-.46c0-.21.1-.69.19-1.43a10.4,10.4,0,0,0,1.35.51C13.25,10.05,13.13,10.59,13,11ZM22,12.24l-4.63,0A3.93,3.93,0,0,1,16,12a2.42,2.42,0,0,1-.87-.62l-1,1.1-.51-1.36.85-.73V8h-.79V6.79h1.88v3.59a2.14,2.14,0,0,0,1.87.73l2,0c.87,0,1.85,0,2.95,0C22.2,11.55,22.05,11.93,22,12.24Zm9-.06-5-.07a2.82,2.82,0,0,1-1.06-.21,1.8,1.8,0,0,1-.74-.59c-.5.48-.85.84-1.06,1.08L22.61,11l.87-.73V7.85h-.8V6.69h2v3.58a2.12,2.12,0,0,0,1.73.76l1.36,0c.9,0,2.1,0,3.59-.05C31.21,11.49,31.08,11.88,31,12.18Z"/></g></svg>
