<svg viewBox="0 0 59 16" version="1.1" xmlns="http://www.w3.org/2000/svg"><path fill="#3a84ff" d="M2,0h55c1.1,0,2,0.9,2,2v12c0,1.1-0.9,2-2,2H2c-1.1,0-2-0.9-2-2V2C0,0.9,0.9,0,2,0z"/><path fill="#fff" d="M7.2,9v2.4H5.8V4.6h2.3c1.7,0,2.5,0.7,2.5,2.2c0,0.6-0.3,1.3-0.8,1.7C9.4,8.8,8.7,9,8,9H7.2z M7.2,5.7v2.2h0.6	c0.9,0,1.3-0.4,1.3-1.1S8.7,5.7,7.9,5.7L7.2,5.7z"/><path fill="#fff" d="M14.7,7.8c-0.2-0.1-0.4-0.2-0.7-0.2c-0.3,0-0.6,0.1-0.8,0.4c-0.2,0.3-0.3,0.6-0.3,1v2.3h-1.4V6.5H13v0.9l0,0	c0.1-0.6,0.7-1,1.3-1c0.1,0,0.3,0,0.4,0.1V7.8z"/><path fill="#fff" d="M15,9c0-0.7,0.2-1.4,0.7-1.9c0.5-0.5,1.2-0.7,1.9-0.7c0.7,0,1.4,0.2,1.9,0.7c0.5,0.5,0.7,1.1,0.7,1.8	c0,0.7-0.2,1.4-0.7,1.9c-0.5,0.5-1.2,0.7-1.9,0.7c-0.7,0-1.4-0.2-1.9-0.7C15.2,10.4,15,9.7,15,9z M16.4,9c0,1,0.4,1.4,1.2,1.4	s1.1-0.5,1.1-1.5s-0.3-1.5-1.1-1.5c-0.3,0-0.7,0.1-0.9,0.4C16.6,8.2,16.4,8.6,16.4,9L16.4,9z"/><path fill="#fff" d="M24.9,11.2c-0.4,0.2-0.9,0.3-1.5,0.3c-0.7,0-1.3-0.2-1.8-0.7C21.2,10.4,21,9.7,21,9.1c0-0.7,0.2-1.4,0.7-1.9	c0.5-0.5,1.3-0.8,2-0.7c0.4,0,0.8,0,1.2,0.2v1.2c-0.3-0.2-0.7-0.4-1.1-0.4c-0.4,0-0.7,0.1-1,0.4c-0.3,0.3-0.5,0.7-0.5,1.1	c0,0.4,0.1,0.7,0.4,1c0.3,0.3,0.6,0.4,1,0.4c0.4,0,0.8-0.1,1.1-0.4L24.9,11.2z"/><path fill="#fff" d="M30.2,9.4H27c0,0.8,0.5,1.1,1.4,1.1c0.5,0,1-0.1,1.4-0.4v1c-0.5,0.3-1.1,0.4-1.7,0.4c-0.7,0-1.3-0.2-1.8-0.6	c-0.4-0.5-0.7-1.2-0.6-1.8c0-0.7,0.2-1.4,0.7-1.9c0.4-0.5,1.1-0.7,1.7-0.7c0.6,0,1.2,0.2,1.6,0.6c0.4,0.5,0.6,1.1,0.6,1.7V9.4z M28.9,8.5c0-0.7-0.3-1.1-0.9-1.1c-0.2,0-0.5,0.1-0.6,0.3C27.2,7.9,27,8.2,27,8.5H28.9z"/><path fill="#fff" d="M31,10.1c0.4,0.3,0.9,0.4,1.4,0.4c0.6,0,0.9-0.1,0.9-0.5s-0.2-0.4-0.7-0.6c-0.5-0.1-0.9-0.3-1.2-0.6	C31.1,8.6,31,8.3,31,7.9c0-0.4,0.2-0.9,0.6-1.1c0.5-0.3,1-0.4,1.5-0.4c0.4,0,0.9,0.1,1.3,0.2v1.1c-0.4-0.2-0.8-0.3-1.2-0.3	c-0.2,0-0.4,0-0.5,0.1c-0.1,0.1-0.2,0.2-0.2,0.3c0,0.2,0.2,0.4,0.6,0.6c0.3,0.1,0.7,0.2,1,0.4c0.2,0.1,0.4,0.3,0.5,0.5	c0.1,0.2,0.2,0.4,0.2,0.7c0,0.5-0.2,0.9-0.6,1.2c-0.5,0.3-1,0.4-1.6,0.4c-0.5,0-1-0.1-1.5-0.2V10.1z"/><path fill="#fff" d="M35.5,10.1c0.4,0.3,0.9,0.4,1.4,0.4c0.6,0,0.9-0.1,0.9-0.5S37.5,9.6,37,9.5c-0.5-0.1-0.9-0.3-1.2-0.6	c-0.2-0.3-0.4-0.6-0.3-0.9c0-0.4,0.2-0.9,0.5-1.1c0.5-0.3,1-0.4,1.5-0.4c0.4,0,0.9,0.1,1.3,0.2v1.1c-0.4-0.2-0.8-0.3-1.2-0.3	c-0.2,0-0.4,0-0.5,0.1c-0.1,0.1-0.2,0.2-0.2,0.3c0,0.2,0.2,0.4,0.6,0.6c0.3,0.1,0.7,0.2,1,0.4c0.2,0.1,0.4,0.3,0.5,0.5	c0.1,0.2,0.2,0.4,0.2,0.7c0,0.5-0.2,0.9-0.6,1.2c-0.5,0.3-1,0.4-1.6,0.4c-0.5,0-1-0.1-1.5-0.2L35.5,10.1z"/><path fill="#fff" d="M39.9,5c0-0.2,0.1-0.4,0.2-0.5c0.2-0.1,0.4-0.2,0.6-0.2c0.2,0,0.4,0.1,0.6,0.2c0.1,0.1,0.2,0.3,0.2,0.5	c0,0.2-0.1,0.4-0.2,0.5c-0.2,0.1-0.4,0.2-0.6,0.2c-0.2,0-0.4-0.1-0.6-0.2C40,5.4,39.9,5.2,39.9,5z M40,11.4V6.5h1.4v4.9H40z"/><path fill="#fff" d="M47.3,11.4h-1.4V8.7c0-0.8-0.3-1.2-0.8-1.2c-0.3,0-0.5,0.1-0.7,0.3c-0.2,0.2-0.3,0.5-0.3,0.8v2.8h-1.4V6.5h1.4	v0.8l0,0c0.3-0.6,0.9-0.9,1.6-0.9c1.1,0,1.6,0.7,1.6,2L47.3,11.4z"/><path fill="#fff" d="M53.2,10.9c0.1,0.8-0.2,1.5-0.8,2.1c-0.6,0.5-1.4,0.8-2.2,0.7c-0.5,0-1.1-0.1-1.6-0.3v-1.2	c0.5,0.3,1,0.4,1.5,0.4c0.4,0,0.9-0.1,1.2-0.4c0.3-0.3,0.5-0.7,0.4-1.1v-0.4l0,0c-0.3,0.5-0.9,0.9-1.5,0.8c-0.6,0-1.1-0.2-1.5-0.6	c-0.4-0.5-0.6-1.1-0.6-1.8c0-0.7,0.2-1.4,0.6-1.9c0.4-0.5,1-0.7,1.6-0.7c0.5,0,1.1,0.2,1.3,0.7l0,0V6.5h1.4L53.2,10.9z M51.8,8.6	c0-0.3-0.1-0.6-0.3-0.8c-0.2-0.2-0.5-0.3-0.7-0.3c-0.3,0-0.6,0.1-0.8,0.4c-0.2,0.3-0.3,0.7-0.3,1.1c0,0.4,0.1,0.7,0.3,1	c0.2,0.2,0.5,0.4,0.8,0.4c0.3,0,0.6-0.1,0.8-0.4c0.2-0.3,0.3-0.6,0.3-1V8.6z"/></svg>
