<svg viewBox="0 0 38 16" version="1.1" xmlns="http://www.w3.org/2000/svg"><path fill="#ea3636" d="M2,0h34c1.1,0,2,0.9,2,2v12c0,1.1-0.9,2-2,2H2c-1.1,0-2-0.9-2-2V2C0,0.9,0.9,0,2,0z"/><path fill="#fff" d="M11.4,11.4H9.7L8.7,9.6C8.5,9.4,8.3,9.1,8.1,8.9C8,8.8,7.8,8.8,7.7,8.8H7.2v2.6H5.8V4.6h2.4	c1.6,0,2.4,0.6,2.4,1.8c0,0.4-0.1,0.9-0.4,1.2C9.9,8,9.5,8.2,9.1,8.3l0,0c0.4,0.2,0.8,0.6,1,1L11.4,11.4z M7.2,5.7v2H8	c0.3,0,0.6-0.1,0.8-0.3C9,7.2,9.1,6.9,9.1,6.6C9.1,6,8.8,5.7,8,5.7L7.2,5.7z"/><path fill="#fff" d="M16,9.4h-3.2c0,0.8,0.5,1.1,1.4,1.1c0.5,0,1-0.1,1.4-0.4v1c-0.5,0.3-1.1,0.4-1.7,0.4c-0.7,0-1.3-0.2-1.8-0.6	c-0.5-0.5-0.7-1.2-0.6-1.8c0-0.7,0.2-1.4,0.7-1.9c0.4-0.5,1.1-0.7,1.7-0.7c0.6,0,1.2,0.2,1.6,0.6C15.8,7.5,16,8.1,16,8.8V9.4z M14.7,8.5c0-0.7-0.3-1.1-0.9-1.1c-0.2,0-0.5,0.1-0.6,0.3c-0.2,0.2-0.3,0.5-0.4,0.8H14.7z"/><path fill="#fff" d="M18.4,11.3c0,0.6-0.1,1.3-0.5,1.8c-0.4,0.4-0.9,0.7-1.5,0.6c-0.2,0-0.5-0.1-0.7-0.1v-1.1	c0.2,0.1,0.4,0.2,0.6,0.2c0.5,0,0.8-0.4,0.8-1.2V6.5h1.4V11.3z M16.8,5c0-0.2,0.1-0.4,0.2-0.5c0.2-0.1,0.4-0.2,0.6-0.2	c0.2,0,0.4,0.1,0.6,0.2c0.1,0.1,0.2,0.3,0.2,0.5c0,0.2-0.1,0.4-0.2,0.5c-0.3,0.3-0.8,0.3-1.2,0C16.9,5.4,16.8,5.2,16.8,5z"/><path fill="#fff" d="M24,9.4h-3.2c0,0.8,0.5,1.1,1.4,1.1c0.5,0,1-0.1,1.4-0.4v1c-0.5,0.3-1.1,0.4-1.7,0.4c-0.7,0.1-1.3-0.2-1.9-0.6	c-0.5-0.5-0.7-1.2-0.6-1.9c0-0.7,0.2-1.3,0.6-1.9c0.4-0.5,1.1-0.7,1.7-0.7c0.6-0.1,1.2,0.2,1.6,0.6C23.8,7.5,24,8.1,24,8.8V9.4z M22.7,8.5c0-0.7-0.3-1.1-0.9-1.1c-0.2,0-0.5,0.1-0.6,0.3c-0.2,0.2-0.3,0.5-0.4,0.8H22.7z"/><path fill="#fff" d="M28.5,11.2c-0.4,0.2-0.9,0.3-1.5,0.3c-0.7,0-1.3-0.2-1.8-0.7c-0.5-0.5-0.7-1.1-0.7-1.8c0-0.7,0.2-1.4,0.7-1.9	c0.5-0.5,1.3-0.8,2-0.7c0.4,0,0.8,0,1.2,0.2v1.2c-0.3-0.2-0.7-0.4-1.1-0.4c-0.4,0-0.7,0.1-1,0.4C26.2,8.2,26,8.6,26,9	c0,0.4,0.1,0.7,0.4,1c0.3,0.3,0.6,0.4,1,0.4c0.4,0,0.8-0.1,1.1-0.4L28.5,11.2z"/><path fill="#fff" d="M32.4,11.3c-0.3,0.1-0.7,0.2-1,0.2c-1,0-1.5-0.5-1.5-1.6V7.6H29V6.5h0.8V5.5l1.4-0.4v1.5h1.1v1.1h-1.1v2.1	c0,0.5,0.2,0.8,0.6,0.8c0.2,0,0.3-0.1,0.5-0.1V11.3z"/></svg>
