<svg xmlns="http://www.w3.org/2000/svg" xmlns:xlink="http://www.w3.org/1999/xlink" viewBox="0 0 1024 1024"><defs><style>.cls-1{fill:url(#未命名的渐变_4);}.cls-2,.cls-3{fill:#fff;}.cls-2{isolation:isolate;}</style><linearGradient id="未命名的渐变_4" x1="514.11" y1="960.69" x2="514.11" y2="63.53" gradientUnits="userSpaceOnUse"><stop offset="0" stop-color="#6dbdf5"/><stop offset="1" stop-color="#5996f3"/></linearGradient></defs><title>蓝鲸系列logo</title><g id="图层_5" data-name="图层 5"><path class="cls-1" d="M919,687.58v-347a104.35,104.35,0,0,0-52.18-90.38L566.29,76.67a104.37,104.37,0,0,0-104.36,0L161.4,250.18a104.35,104.35,0,0,0-52.18,90.38v347A104.35,104.35,0,0,0,161.4,778L461.93,951.47a104.37,104.37,0,0,0,104.36,0L866.82,778A104.35,104.35,0,0,0,919,687.58Z"/><path class="cls-2" d="M520.22,357c93.51,0,154.92,27.71,185.85,46.54A446,446,0,0,1,640.2,593.89C600.15,657.3,548.47,706.73,514,735.79c-34.31-28.89-85.66-78-126-141.9a445.88,445.88,0,0,1-65.88-190.38C353.08,384.68,414.49,357,508,357c.77,0,1.53,0,2.28,0l2.92.05H515l2.91-.05c.75,0,1.51,0,2.28,0m0-70.39c-2.06,0-4.07.07-6.11.1s-4.05-.1-6.11-.1c-172.45,0-257.79,82.65-257.79,82.65s-6.16,128.51,78.3,262.25C403.62,750.39,512.4,823.36,512.4,823.36l1.69,1.68,1.73-1.68s108.78-73,183.89-191.88C784.17,497.74,778,369.23,778,369.23s-85.34-82.65-257.79-82.65Z"/><path class="cls-3" d="M557.94,484.85a43.83,43.83,0,1,0-63.71,39v35a19.88,19.88,0,0,0,39.76,0v-35A43.81,43.81,0,0,0,557.94,484.85Z"/></g></svg>
