<?xml version="1.0" encoding="utf-8"?>
<!-- Generator: Adobe Illustrator 24.1.2, SVG Export Plug-In . SVG Version: 6.00 Build 0)  -->
<svg version="1.1" id="图层_1" xmlns="http://www.w3.org/2000/svg" xmlns:xlink="http://www.w3.org/1999/xlink" x="0px" y="0px"
	 viewBox="0 0 28 32" style="enable-background:new 0 0 28 32;" xml:space="preserve">
<style type="text/css">
	.st0{fill:url(#路径_1_);stroke:url(#路径_2_);}
	.st1{fill:url(#path-4_2_);}
</style>
<linearGradient id="路径_1_" gradientUnits="userSpaceOnUse" x1="-346.1667" y1="662.3334" x2="-346.1667" y2="661.3334" gradientTransform="matrix(27 0 0 -30.0001 9360.5 19871.084)">
	<stop  offset="0" style="stop-color:#322B1F"/>
	<stop  offset="1" style="stop-color:#564529"/>
</linearGradient>
<linearGradient id="路径_2_" gradientUnits="userSpaceOnUse" x1="-346.1667" y1="662.3334" x2="-346.1667" y2="661.3334" gradientTransform="matrix(27 0 0 -30.0001 9360.5 19871.084)">
	<stop  offset="0" style="stop-color:#FFDD7E;stop-opacity:5.000000e-02"/>
	<stop  offset="1" style="stop-color:#FFB848;stop-opacity:5.000000e-02"/>
</linearGradient>
<path id="路径" class="st0" d="M2.1,7.4C1.6,7.6,1.2,8,0.9,8.5C0.6,9,0.5,9.5,0.5,10V22c0,0.6,0.1,1.1,0.4,1.5
	c0.3,0.5,0.7,0.9,1.1,1.1l10.4,6c1,0.6,2.1,0.6,3.1,0l10.4-6c0.5-0.3,0.9-0.7,1.1-1.1c0.3-0.5,0.4-1,0.4-1.5V10
	c0-0.6-0.1-1.1-0.4-1.5c-0.3-0.5-0.7-0.9-1.1-1.1l-10.4-6c-1-0.6-2.1-0.6-3.1,0L2.1,7.4z"/>
<linearGradient id="path-4_2_" gradientUnits="userSpaceOnUse" x1="-339.5" y1="647.8889" x2="-339.5" y2="646.8889" gradientTransform="matrix(18 0 0 -18 6125 11670.5)">
	<stop  offset="0" style="stop-color:#FFDD7E"/>
	<stop  offset="1" style="stop-color:#FFB848"/>
</linearGradient>
<path id="path-4_1_" class="st1" d="M14.2,8.5c5.9,0,8.8,2.8,8.8,2.8s0.2,4.3-2.7,8.8c-2.6,4-6.3,6.4-6.3,6.4l0,0L14,26.5l-0.1-0.1
	c0,0-3.7-2.4-6.3-6.4C4.8,15.6,5,11.3,5,11.3s2.9-2.8,8.8-2.8c0.1,0,0.1,0,0.2,0C14.1,8.5,14.1,8.5,14.2,8.5L14.2,8.5L14.2,8.5z
	 M13.9,10.9L13.9,10.9c-3.3,0-5.4,0.9-6.4,1.6c0.2,2.3,1,4.4,2.2,6.4c1.4,2.1,3.1,3.8,4.3,4.7c1.2-1,2.9-2.6,4.3-4.7
	c1.2-1.9,2-4.1,2.2-6.4c-1.1-0.6-3.1-1.6-6.3-1.6l0,0h-0.1l-0.1,0L13.9,10.9L13.9,10.9L13.9,10.9z M13.1,14.6
	c0.2-0.7,0.9-1.2,1.7-1.1c0.7,0.1,1.3,0.8,1.3,1.6c0,0.6-0.3,1.1-0.8,1.4l0,0v1.3c0,0.4-0.3,0.7-0.7,0.7s-0.7-0.3-0.7-0.7l0,0v-1.3
	C13.2,16.2,12.8,15.3,13.1,14.6z"/>
</svg>
