<svg viewBox="0 0 64 64" version="1.1" xmlns="http://www.w3.org/2000/svg"><path fill="#f9bc00" d="M32,55.33a16.9,16.9,0,0,1-10.91-3.75,14,14,0,0,0-4,1.85c-.91.69-.79,1.39-.63,1.68.71,1.24,12.24.79,15.57.4Z"/><path fill="#f9bc00" d="M32,55.33a16.92,16.92,0,0,0,10.92-3.75,14.22,14.22,0,0,1,4,1.85c.9.69.79,1.39.62,1.68-.71,1.24-12.24.79-15.57.4Z"/><path fill="#040000" d="M32,28.4a58.81,58.81,0,0,0,14.89-2,1.8,1.8,0,0,0,.71-.37h0c0-.07,0-1.21,0-1.8,0-9.9-4.52-19.85-15.66-19.85S16.34,14.3,16.34,24.2c0,.59,0,1.73,0,1.8a1.33,1.33,0,0,0,.57.33A58.87,58.87,0,0,0,32,28.4Z"/><path fill="#040000" d="M51.55,36.66c-.45-1.48-1-3.21-1.67-4.87a1.89,1.89,0,0,0-.53,0A62.84,62.84,0,0,1,32,34.45H32a62.83,62.83,0,0,1-17.22-2.62,2.7,2.7,0,0,0-.63,0c-.62,1.66-1.22,3.39-1.67,4.87-2.12,7.05-1.44,10-.91,10,1.12.14,4.37-5.31,4.37-5.31,0,5.54,4.85,14,15.94,14.12h.3c11.09-.08,15.94-8.58,15.94-14.12,0,0,3.25,5.45,4.37,5.31C53,46.63,53.67,43.71,51.55,36.66Z"/><path fill="#fff" d="M28,19c-1.51.07-2.8-1.71-2.88-4s1.07-4.15,2.58-4.23,2.8,1.71,2.88,4S29.55,18.91,28,19Z"/><path fill="#fff" d="M38.84,15c-.08,2.25-1.37,4-2.88,4s-2.66-2-2.58-4.22,1.37-4,2.88-4S38.93,12.75,38.84,15Z"/><path fill="#f9bc00" d="M41.53,22.17c-.4-.92-4.47-2-9.5-2H32c-5,0-9.1,1-9.5,2a.3.3,0,0,0,0,.31c.34.51,4.85,3,9.47,3H32c4.62,0,9.13-2.53,9.47-3a.3.3,0,0,0,0-.31Z"/><path fill="#040000" d="M29.89,15.05a1.55,1.55,0,0,1-1.05,1.77c-.66.09-1.24-.57-1.31-1.46a1.54,1.54,0,0,1,1.06-1.77C29.24,13.5,29.83,14.16,29.89,15.05Z"/><path fill="#040000" fill-rule="evenodd" d="M34,15.35A2.56,2.56,0,0,1,37,14.27a1.54,1.54,0,0,1,.77.38.51.51,0,0,1,0,.46c-.14.41-.44.4-.6.32a2,2,0,0,0-2.63.39.26.26,0,0,1-.37,0A.41.41,0,0,1,34,15.35Z"/><path fill="#fff" d="M32,34.13H32a58.28,58.28,0,0,1-11.75-1.27,35.2,35.2,0,0,0-.38,7.84c.46,7.9,5,12.86,12,12.94h.28c7-.08,11.56-5,12-12.94a35.2,35.2,0,0,0-.38-7.84A58.2,58.2,0,0,1,32,34.13Z"/><path fill="#e50036" d="M22.14,33.46v7.78a22.63,22.63,0,0,0,6.91.22V34.29A60.34,60.34,0,0,1,22.14,33.46Z"/><path fill="#e50036" d="M47.63,26A56.75,56.75,0,0,1,32,28.25H32A56.58,56.58,0,0,1,16.37,26l-2.25,5.79A62.77,62.77,0,0,0,32,34.6H32a62.77,62.77,0,0,0,17.85-2.81Z"/></svg>