<?xml version="1.0" encoding="UTF-8"?>
<svg width="20px" height="20px" viewBox="0 0 20 20" version="1.1" xmlns="http://www.w3.org/2000/svg" xmlns:xlink="http://www.w3.org/1999/xlink">
    <!-- Generator: Sketch 54 (76480) - https://sketchapp.com -->
    <title>用户组</title>
    <desc>Created with Sketch.</desc>
    <g id="页面1" stroke="none" stroke-width="1" fill="none" fill-rule="evenodd">
        <g id="授权添加对象后" transform="translate(-220.000000, -1189.000000)" fill-rule="nonzero">
            <g id="编组-3" transform="translate(106.000000, 1104.000000)">
                <g id="组用户">
                    <g id="编组-2" transform="translate(13.000000, 0.000000)">
                        <g id="组织" transform="translate(83.000000, 34.000000)">
                            <g id="组一" transform="translate(10.000000, 46.000000)">
                                <g id="用户组" transform="translate(8.000000, 5.000000)">
                                    <path d="M10,0 L10,0 C15.5357143,0 20,4.46428571 20,10 L20,10 C20,15.5357143 15.5357143,20 10,20 L10,20 C4.46428571,20 0,15.5357143 0,10 L0,10 C0,4.46428571 4.46428571,0 10,0 Z" id="路径" fill="#699DF4"></path>
                                    <path d="M12.3706751,10.4824329 C13.8779346,10.8101308 14.9747503,12.2774744 15,14 L13.7890229,14 C13.4596577,12.7126811 12.5455124,11.7186977 11.3884819,11.3898046 C11.2194297,11.3898046 11.4160938,11.1090568 11.3884819,10.8732034 C12.0973741,10.3041201 12.1931703,8.19155639 12.0849769,7.81343215 C11.6758706,6.38376842 11.1980165,5.60855049 10,5.56555309 C10.3459518,5.19471937 10.8081141,4.99164274 11.2864871,5.00026367 C12.4878846,5.00026367 13.2429843,6.12704862 13.2429843,7.49095162 C13.2429843,8.51783083 12.909388,9.62627864 12.1238589,9.99871205 C12.1051742,10.2026603 12.2044718,10.3972678 12.3706751,10.4824329 Z M11.1053749,8.48960382 C11.1053749,9.51629671 10.7463422,10.6245434 9.90091729,10.9969092 C9.88096646,11.2023217 9.98946861,11.3979623 10.1701918,11.4824389 C11.7924726,11.8103485 12.9728778,13.2776379 13,15 L5,15 C5,12.2815398 7.57387612,11.4824389 7.85042833,11.4824389 C8.01869077,11.385915 8.11573064,11.1942899 8.09726328,10.9950126 C7.25426426,10.6220146 6.89705102,9.51503231 6.89705102,8.48960382 C6.89705102,7.1265805 7.70972632,6 9.00272914,6 C10.295732,6 11.1053749,7.1265805 11.1053749,8.48960382 L11.1053749,8.48960382 Z" id="形状" fill="#FFFFFF"></path>
                                </g>
                            </g>
                        </g>
                    </g>
                </g>
            </g>
        </g>
    </g>
</svg>
