<?xml version="1.0" encoding="UTF-8"?>
<svg width="24px" height="24px" viewBox="0 0 24 24" version="1.1" xmlns="http://www.w3.org/2000/svg" xmlns:xlink="http://www.w3.org/1999/xlink">
    <!-- Generator: Sketch 54 (76480) - https://sketchapp.com -->
    <title>user-default</title>
    <desc>Created with Sketch.</desc>
    <g id="Page-1" stroke="none" stroke-width="1" fill="none" fill-rule="evenodd">
        <g id="用户组详情-人员" transform="translate(-124.000000, -298.000000)" fill-rule="nonzero">
            <g id="表格" transform="translate(79.000000, 247.000000)">
                <g id="分组-2" transform="translate(45.000000, 51.000000)">
                    <g id="user-default">
                        <path d="M12,0 L12,0 C18.6428571,0 24,5.35714286 24,12 L24,12 C24,18.6428571 18.6428571,24 12,24 L12,24 C5.35714286,24 0,18.6428571 0,12 L0,12 C0,5.35714286 5.35714286,0 12,0 Z" id="路径" fill="#699DF4"></path>
                        <path d="M15.6,7.57894737 C15.6,9.78947368 14,12 12,12 C10,12 8.4,9.78947368 8.4,7.57894737 C8.4,5.36842105 10,3.6 12,3.6 C14,3.6 15.6,5.36842105 15.6,7.57894737 Z" id="路径" fill="#FFFFFF"></path>
                        <path d="M15.9272727,13.3485549 C15.5345455,13.1504817 15.0981818,13.1504817 14.7054545,13.3485549 C13.0036364,14.1408479 10.9963636,14.1408479 9.29454545,13.3485549 C8.90181818,13.1504817 8.46545455,13.1504817 8.07272727,13.3485549 C6.10909091,14.3389212 4.8,16.0027364 4.8,17.9438542 C4.8,20.2811185 7.72363636,20.3999625 12,20.3999625 C16.2763636,20.3999625 19.2,20.4395771 19.2,17.9438542 C19.2,16.0423511 17.8909091,14.3389212 15.9272727,13.3485549 Z" id="路径" fill="#FFFFFF"></path>
                    </g>
                </g>
            </g>
        </g>
    </g>
</svg>
