<svg viewBox="0 0 64 64" version="1.1" xmlns="http://www.w3.org/2000/svg"><path fill="#2bbc05" d="M43.27,20.57a10.87,10.87,0,0,1,1.8.1C43.49,13.09,35.48,7.5,26.31,7.5,16.08,7.5,7.65,14.56,7.65,23.41c0,5.17,2.85,9.38,7.48,12.55l-1.89,5.69,6.53-3.27a35.1,35.1,0,0,0,6.54.95,9.78,9.78,0,0,0,1.79-.11,15.62,15.62,0,0,1-.53-3.9C27.47,27.1,34.42,20.57,43.27,20.57Zm-10-5.06a2.22,2.22,0,0,1,2.32,2.32,2.22,2.22,0,0,1-2.32,2.32c-1.37,0-2.84-.95-2.84-2.32A2.66,2.66,0,0,1,33.26,15.51ZM20.19,20.15c-1.37,0-2.84-.95-2.84-2.32a2.62,2.62,0,0,1,2.84-2.32,2.22,2.22,0,0,1,2.32,2.32A2.11,2.11,0,0,1,20.19,20.15Z"/><path fill="#2bbc05" d="M60.35,35.11c0-7.48-7.48-13.49-15.81-13.49-8.85,0-15.92,6.12-15.92,13.49s7,13.49,15.92,13.49a20.47,20.47,0,0,0,5.58-1l5.17,2.85-1.37-4.64C57.61,43,60.35,39.22,60.35,35.11Zm-21-2.42a1.9,1.9,0,0,1,0-3.8,2.14,2.14,0,0,1,2.31,1.9A2.07,2.07,0,0,1,39.38,32.69Zm10.22,0a1.9,1.9,0,0,1,0-3.8,2.15,2.15,0,0,1,2.32,1.9A2.08,2.08,0,0,1,49.6,32.69Z"/></svg>