<?xml version="1.0" encoding="UTF-8"?>
<svg width="16px" height="16px" viewBox="0 0 16 16" version="1.1" xmlns="http://www.w3.org/2000/svg" xmlns:xlink="http://www.w3.org/1999/xlink">
    <title>编组</title>
    <g id="账号切换" stroke="none" stroke-width="1" fill="none" fill-rule="evenodd">
        <g id="超级管理员-切换展开" transform="translate(-1196.000000, -379.000000)">
            <g id="编组-3" transform="translate(1178.000000, 46.000000)">
                <g id="编组-8" transform="translate(0.000000, 319.500000)">
                    <g id="编组" transform="translate(26.000000, 21.500000) scale(1, -1) translate(-26.000000, -21.500000) translate(18.000000, 13.500000)">
                        <rect id="矩形" x="0" y="0" width="16" height="16"></rect>
                        <path d="M9.92095923,12.9248479 L9.92095923,13 L3.77104311,13 L3.77104311,12.2484794 L9.15221971,12.2484794 C10.8504722,12.2484794 12.2271778,10.9026105 12.2271778,9.242397 C12.2271778,7.58218353 10.8504722,6.2363146 9.15221971,6.2363146 L6.07726165,6.2363146 L6.07726165,7.43874756 C6.0685498,7.60945283 5.92061208,7.74132583 5.74593492,7.73409515 C5.67708751,7.73439803 5.60968639,7.7147875 5.55221256,7.67773111 L3.13837049,6.10630153 C3.0680333,6.06472219 3.01933084,5.99563308 3.00462706,5.91657368 C2.98992327,5.83751427 3.0106322,5.75608759 3.06149653,5.6929652 C3.08341034,5.66732174 3.10935961,5.64525155 3.13837049,5.62758291 L5.55221256,4.05690485 C5.70058373,3.96080211 5.89911695,3.98894462 6.01345627,4.12228715 C6.05447644,4.1715713 6.0769942,4.2331027 6.07726165,4.29663993 L6.07726165,5.484794 L9.15221971,5.484794 C11.1269313,5.48285386 12.7818642,6.94405335 12.9803203,8.86476086 C13.1787763,10.7854684 11.8561785,12.5406918 9.92095923,12.9248479 L9.92095923,12.9248479 Z" id="路径" fill="#63656E" fill-rule="nonzero" transform="translate(8.000000, 8.500000) scale(1, -1) translate(-8.000000, -8.500000) "></path>
                    </g>
                </g>
            </g>
        </g>
    </g>
</svg>
